name C:\Users\u0101727\Documents\MyRepositories\upper-imu-dc\OpenSim\subject0\MA\ResultsMA\grid_4nodes_9dim\angles_3.mot
datacolumns 10
datarows 28
range 325.01000000 325.28000000
endheader 
time	clav_prot	clav_elev	scapula_abduction	scapula_elevation	scapula_upward_rot	scapula_winging	plane_elv	shoulder_elv	axial_rot	
        325.01000000	        -50.00000000	          0.00000000	         15.00000000	         10.00000000	         60.00000000	         10.00000000	         90.00000000	         26.66666667	        -90.00000000	
        325.02000000	        -38.33333333	          0.00000000	         15.00000000	         10.00000000	         60.00000000	         10.00000000	         90.00000000	         26.66666667	        -90.00000000	
        325.03000000	        -26.66666667	          0.00000000	         15.00000000	         10.00000000	         60.00000000	         10.00000000	         90.00000000	         26.66666667	        -90.00000000	
        325.04000000	        -15.00000000	          0.00000000	         15.00000000	         10.00000000	         60.00000000	         10.00000000	         90.00000000	         26.66666667	        -90.00000000	
        325.05000000	        -50.00000000	         10.00000000	         15.00000000	         10.00000000	         60.00000000	         10.00000000	         90.00000000	         26.66666667	        -90.00000000	
        325.06000000	        -38.33333333	         10.00000000	         15.00000000	         10.00000000	         60.00000000	         10.00000000	         90.00000000	         26.66666667	        -90.00000000	
        325.07000000	        -26.66666667	         10.00000000	         15.00000000	         10.00000000	         60.00000000	         10.00000000	         90.00000000	         26.66666667	        -90.00000000	
        325.08000000	        -15.00000000	         10.00000000	         15.00000000	         10.00000000	         60.00000000	         10.00000000	         90.00000000	         26.66666667	        -90.00000000	
        325.09000000	        -50.00000000	         20.00000000	         15.00000000	         10.00000000	         60.00000000	         10.00000000	         90.00000000	         26.66666667	        -90.00000000	
        325.10000000	        -38.33333333	         20.00000000	         15.00000000	         10.00000000	         60.00000000	         10.00000000	         90.00000000	         26.66666667	        -90.00000000	
        325.11000000	        -26.66666667	         20.00000000	         15.00000000	         10.00000000	         60.00000000	         10.00000000	         90.00000000	         26.66666667	        -90.00000000	
        325.12000000	        -15.00000000	         20.00000000	         15.00000000	         10.00000000	         60.00000000	         10.00000000	         90.00000000	         26.66666667	        -90.00000000	
        325.13000000	        -50.00000000	        -10.00000000	        -40.00000000	        -10.00000000	         90.00000000	         10.00000000	         90.00000000	         26.66666667	        -90.00000000	
        325.14000000	        -38.33333333	        -10.00000000	        -40.00000000	        -10.00000000	         90.00000000	         10.00000000	         90.00000000	         26.66666667	        -90.00000000	
        325.15000000	        -26.66666667	        -10.00000000	        -40.00000000	        -10.00000000	         90.00000000	         10.00000000	         90.00000000	         26.66666667	        -90.00000000	
        325.16000000	        -15.00000000	        -10.00000000	        -40.00000000	        -10.00000000	         90.00000000	         10.00000000	         90.00000000	         26.66666667	        -90.00000000	
        325.17000000	        -50.00000000	          0.00000000	        -40.00000000	        -10.00000000	         90.00000000	         10.00000000	         90.00000000	         26.66666667	        -90.00000000	
        325.18000000	        -38.33333333	          0.00000000	        -40.00000000	        -10.00000000	         90.00000000	         10.00000000	         90.00000000	         26.66666667	        -90.00000000	
        325.19000000	        -26.66666667	          0.00000000	        -40.00000000	        -10.00000000	         90.00000000	         10.00000000	         90.00000000	         26.66666667	        -90.00000000	
        325.20000000	        -15.00000000	          0.00000000	        -40.00000000	        -10.00000000	         90.00000000	         10.00000000	         90.00000000	         26.66666667	        -90.00000000	
        325.21000000	        -50.00000000	         10.00000000	        -40.00000000	        -10.00000000	         90.00000000	         10.00000000	         90.00000000	         26.66666667	        -90.00000000	
        325.22000000	        -38.33333333	         10.00000000	        -40.00000000	        -10.00000000	         90.00000000	         10.00000000	         90.00000000	         26.66666667	        -90.00000000	
        325.23000000	        -26.66666667	         10.00000000	        -40.00000000	        -10.00000000	         90.00000000	         10.00000000	         90.00000000	         26.66666667	        -90.00000000	
        325.24000000	        -15.00000000	         10.00000000	        -40.00000000	        -10.00000000	         90.00000000	         10.00000000	         90.00000000	         26.66666667	        -90.00000000	
        325.25000000	        -50.00000000	         20.00000000	        -40.00000000	        -10.00000000	         90.00000000	         10.00000000	         90.00000000	         26.66666667	        -90.00000000	
        325.26000000	        -38.33333333	         20.00000000	        -40.00000000	        -10.00000000	         90.00000000	         10.00000000	         90.00000000	         26.66666667	        -90.00000000	
        325.27000000	        -26.66666667	         20.00000000	        -40.00000000	        -10.00000000	         90.00000000	         10.00000000	         90.00000000	         26.66666667	        -90.00000000	
        325.28000000	        -15.00000000	         20.00000000	        -40.00000000	        -10.00000000	         90.00000000	         10.00000000	         90.00000000	         26.66666667	        -90.00000000	
